<?xml version="1.0" encoding="utf-8"?>
<!-- Generator: Adobe Illustrator 25.0.1, SVG Export Plug-In . SVG Version: 6.00 Build 0)  -->
<svg version="1.1" id="Layer_1" xmlns="http://www.w3.org/2000/svg" xmlns:xlink="http://www.w3.org/1999/xlink" x="0px" y="0px"
	 viewBox="0 0 176.7 62" style="enable-background:new 0 0 176.7 62;" xml:space="preserve">
<style type="text/css">
	.st0{fill:#FFFFFF;}
	.st1{fill-rule:evenodd;clip-rule:evenodd;fill:#7F46F0;}
	.st2{fill-rule:evenodd;clip-rule:evenodd;fill:#D34FA0;}
	.st3{fill-rule:evenodd;clip-rule:evenodd;fill:#0AA5E8;}
	.st4{fill-rule:evenodd;clip-rule:evenodd;fill:#38E4DE;}
</style>
<g>
	<path id="Layer_x0020_1_4_" class="st0" d="M145.2,21.3h-6.3V23c-1.2-1.3-3.1-2.1-5.6-2.1c-5.4,0-9.1,4.3-9.1,10.2
		c0,5.9,3.7,10.1,9.1,10.1c2.6,0,4.7-1.2,6-2.8v2.4h2.2h3.6v-2.4v-4.2v0v-2.4V21.3L145.2,21.3z M138.9,34.4c-1,0.9-2.4,1.4-3.8,1.4
		c-2.7,0-4.4-1.8-4.4-4.7c0-2.9,1.7-4.7,4.4-4.7c1.5,0,3,0.6,3.8,1.4V34.4z M113.4,14.2v26.7h6.3V14.2H113.4z M105.9,34.6
		c-1.2,0.9-3.5,1.9-5.6,1.9c-2.9,0-4.5-1.5-4.9-3.8H108c0.2-0.7,0.4-2.5,0.4-3.8c0-4.5-2.9-8.2-8.8-8.2c-6.3,0-10.4,4.5-10.4,10.4
		c0,5.8,3.4,10.3,10.8,10.3c3.3,0,6.3-1,8.4-2.6L105.9,34.6z M102.9,28.7h-7.4c0.3-1.7,1.7-3.2,4-3.2s3.4,1.1,3.4,2.7V28.7z
		 M71.1,40.9h6.3v-8.7v-0.6c0-2.5,2-4.5,4.5-4.5h1h2.6v-2.8v-1.8v-1.8H82c-6,0-10.9,4.9-10.9,10.9v0.8V40.9z M157.1,21.3v8.5v1
		c0,5.2,8,5.7,8-0.5v-9.1h1h5.3v13.7v12.2h-6.3v-6.5c-7.1,2.5-14.3-2-14.3-10v-1.1v-8.4H157.1z"/>
	<g id="Layer_x0020_1_1_">
		<g id="_2302127387760_2_">
			<path class="st1" d="M34.7,37.1v7.1c0,3.4-1.4,6.5-3.6,8.7c-2.2,2.2-5.3,3.6-8.7,3.6l-7.1,0H14v-1.3v-6.7l0-1.3h1.3h2.5h4.4
				c1.7,0,3.1-1.4,3.1-3.1v-3.9v-3.1v-1.3l1.3,0h6.7h1.3V37.1z"/>
			<path class="st2" d="M24.1,26.5H17c-3.4,0-6.5,1.4-8.7,3.6c-2.2,2.2-3.6,5.3-3.6,8.7l0,7.1v1.3H6h6.7l1.3,0v-1.3v-2.5V39
				c0-1.7,1.4-3.1,3.1-3.1H21h3.1h1.3l0-1.3v-6.7v-1.3H24.1z"/>
			<path class="st3" d="M36.1,35.8h7.1c3.4,0,6.5-1.4,8.7-3.6c2.2-2.2,3.6-5.3,3.6-8.7l0-7.1v-1.3h-1.3h-6.7l-1.3,0v1.3v2.5v4.4
				c0,1.7-1.4,3.1-3.1,3.1h-3.9h-3.1h-1.3l0,1.3v6.7v1.3H36.1z"/>
			<path class="st4" d="M25.4,25.2v-7.1c0-3.4,1.4-6.5,3.6-8.7c2.2-2.2,5.3-3.6,8.7-3.6l7.1,0h1.3v1.3v6.7l0,1.3h-1.3h-2.5h-4.4
				c-1.7,0-3.1,1.4-3.1,3.1v3.9v3.1v1.3l-1.3,0h-6.7h-1.3V25.2z"/>
		</g>
	</g>
</g>
</svg>
